<?xml version="1.0" encoding="UTF-8" standalone="no"?>
<!DOCTYPE svg PUBLIC "-//W3C//DTD SVG 1.1//EN" "http://www.w3.org/Graphics/SVG/1.1/DTD/svg11.dtd">
<svg xmlns="http://www.w3.org/2000/svg" version="1.1" viewBox="0.00 0.00 605.00 800.00">
<path fill="#FFFFFF" d="
  M 289.96 127.88
  Q 286.89 127.77 289.79 128.77
  L 299.98 132.30
  Q 302.32 133.11 299.84 133.12
  L 183.47 133.32
  Q 181.86 133.32 183.17 132.39
  C 219.24 106.65 260.27 94.44 304.69 94.07
  Q 305.25 94.07 305.25 93.51
  L 305.25 1.75
  A 0.25 0.25 0.0 0 1 305.50 1.50
  L 310.25 1.50
  A 0.25 0.25 0.0 0 1 310.50 1.75
  L 310.50 123.04
  A 0.42 0.42 0.0 0 1 309.85 123.39
  L 299.66 116.71
  Q 297.80 115.49 299.03 117.34
  L 305.79 127.49
  Q 306.44 128.46 305.26 128.42
  L 289.96 127.88
  Z"
/>
<path fill="#FFFFFF" d="
  M 329.45 103.97
  Q 329.85 102.64 329.03 103.76
  L 318.85 117.73
  Q 318.00 118.89 318.00 117.46
  L 318.00 1.75
  A 0.25 0.25 0.0 0 1 318.25 1.50
  L 322.75 1.49
  A 0.26 0.25 -90.0 0 1 323.00 1.75
  L 323.00 94.51
  A 0.62 0.61 3.7 0 0 323.54 95.12
  Q 334.60 96.53 339.99 97.54
  Q 385.19 105.97 422.04 132.34
  Q 423.19 133.16 421.78 133.16
  L 331.24 133.15
  Q 328.38 133.15 331.04 132.09
  L 341.29 128.03
  Q 342.19 127.67 341.22 127.65
  L 323.03 127.32
  A 0.47 0.47 0.0 0 1 322.59 126.71
  L 329.45 103.97
  Z"
/>
<path fill="#FFFFFF" d="
  M 284.90 144.62
  Q 249.67 148.71 219.69 167.52
  C 160.14 204.90 132.47 276.44 152.12 344.38
  Q 152.28 344.91 151.92 345.34
  L 149.07 348.73
  A 1.11 1.08 15.1 0 1 148.37 349.12
  C 133.22 351.33 119.97 359.52 109.19 370.09
  Q 108.81 370.47 108.63 369.96
  C 78.12 283.73 107.33 188.81 180.26 134.45
  A 2.54 2.53 -62.6 0 1 181.83 133.95
  L 301.14 136.32
  A 0.20 0.20 0.0 0 1 301.29 136.65
  L 296.00 143.41
  Q 295.84 143.61 295.58 143.63
  Q 289.83 144.05 284.90 144.62
  Z"
/>
<path fill="#FFFFFF" d="
  M 430.96 462.13
  A 0.37 0.36 -80.3 0 0 431.30 462.62
  Q 433.93 462.60 436.54 463.11
  Q 497.23 474.81 555.43 495.61
  Q 578.94 504.01 598.50 512.96
  Q 609.20 517.86 598.01 514.22
  Q 509.92 485.59 417.94 474.46
  Q 417.46 474.41 417.23 473.98
  C 415.81 471.37 416.67 468.79 415.81 466.47
  C 414.77 463.66 412.88 461.38 411.85 458.79
  Q 405.32 442.39 397.83 425.82
  A 0.92 0.92 0.0 0 1 398.19 424.66
  Q 398.27 424.62 398.57 424.54
  Q 398.76 424.49 398.91 424.37
  C 454.40 380.20 474.77 305.98 447.40 240.15
  C 428.51 194.70 388.36 159.96 340.40 148.08
  Q 338.03 147.50 337.57 147.10
  Q 332.89 142.99 328.33 138.68
  Q 327.32 137.74 328.70 137.70
  L 425.50 135.26
  Q 425.98 135.25 426.37 135.54
  C 533.50 216.41 536.49 377.59 431.58 461.33
  Q 431.12 461.70 430.96 462.13
  Z"
/>
<path fill="#FFFFFF" d="
  M 197.90 452.52
  L 178.07 453.79
  A 0.85 0.83 -24.7 0 1 177.45 453.57
  Q 174.89 451.24 174.04 448.97
  Q 167.94 432.76 164.96 426.79
  Q 161.98 420.82 155.45 417.23
  C 153.15 415.96 151.35 416.40 149.26 417.64
  A 0.61 0.61 0.0 0 1 148.44 417.46
  Q 148.21 417.10 148.47 416.73
  C 148.99 416.02 150.09 414.90 150.98 414.24
  C 156.20 410.39 162.56 406.63 166.12 401.07
  A 0.55 0.55 0.0 0 0 165.68 400.23
  C 164.75 400.19 163.83 399.85 162.94 399.81
  Q 153.70 399.40 143.33 399.47
  Q 141.38 399.49 140.94 397.59
  L 140.75 396.75
  Q 140.35 395.00 142.13 395.27
  C 144.40 395.61 146.31 396.39 148.58 395.59
  Q 152.34 394.27 155.13 391.38
  Q 155.60 390.88 154.93 390.74
  C 151.95 390.13 146.68 390.73 145.59 387.22
  C 144.15 382.60 141.59 380.45 136.39 378.34
  Q 125.16 373.79 113.67 374.13
  Q 112.31 374.17 113.28 373.21
  C 123.09 363.50 136.11 355.47 150.00 354.09
  Q 150.82 354.01 151.90 352.87
  C 157.93 346.55 161.96 340.21 171.62 340.62
  C 179.12 340.94 188.84 346.02 197.21 347.84
  Q 212.09 351.08 226.75 350.63
  C 236.47 350.33 246.13 344.08 253.93 339.29
  C 258.02 336.78 262.61 335.27 267.12 333.60
  C 272.99 331.42 265.94 321.26 263.70 318.11
  Q 263.41 317.69 262.91 317.62
  Q 250.41 315.73 249.01 302.49
  C 248.43 297.07 249.26 293.31 253.62 290.00
  Q 257.82 286.81 261.05 281.84
  C 262.58 279.48 264.61 278.87 267.61 278.80
  Q 270.48 278.73 274.24 277.78
  C 277.99 276.83 282.97 281.12 285.77 283.19
  A 0.64 0.63 19.1 0 0 286.78 282.70
  C 287.03 275.55 284.26 271.24 278.76 266.43
  Q 272.51 260.97 265.32 257.26
  A 1.18 1.18 0.0 0 1 265.04 255.37
  L 267.33 253.13
  Q 267.74 252.73 267.73 252.15
  C 267.64 238.82 274.17 227.04 286.98 222.20
  Q 287.45 222.02 287.55 221.53
  C 289.17 213.35 290.54 205.12 292.63 197.05
  Q 292.98 195.70 293.78 194.22
  Q 299.12 184.36 300.75 173.22
  Q 301.33 169.26 301.72 165.27
  C 301.95 162.96 303.10 161.62 304.13 159.67
  C 305.38 157.30 305.25 154.78 305.74 152.17
  Q 305.83 151.68 306.25 151.40
  L 307.83 150.38
  Q 308.29 150.08 308.37 149.54
  C 308.90 145.96 311.77 145.94 308.77 141.61
  Q 308.19 140.78 308.97 140.13
  L 310.97 138.45
  Q 311.40 138.09 311.82 138.47
  L 314.50 140.93
  Q 314.93 141.32 315.38 140.96
  L 317.27 139.43
  A 1.35 1.34 43.4 0 1 318.91 139.39
  C 320.54 140.59 318.95 142.80 318.43 144.10
  Q 318.25 144.56 318.49 144.99
  C 320.21 148.07 322.06 152.27 321.30 155.42
  Q 321.17 155.94 321.60 156.26
  Q 322.62 156.99 323.83 157.32
  Q 324.41 157.47 324.47 158.06
  Q 324.87 161.65 327.99 163.64
  A 0.98 0.97 14.0 0 1 328.44 164.38
  L 329.20 174.21
  A 3.51 3.43 -66.5 0 0 329.90 176.05
  Q 340.63 190.20 351.95 203.79
  Q 352.79 204.81 353.47 207.50
  C 354.93 213.29 356.04 218.48 357.95 224.74
  C 359.05 228.37 359.29 233.02 361.64 236.07
  C 367.66 243.91 372.04 248.80 376.75 252.61
  A 1.50 1.50 0.0 0 1 376.66 255.00
  Q 371.52 258.59 367.05 262.29
  C 360.07 268.06 364.47 275.46 363.83 282.95
  Q 362.73 295.79 358.90 306.67
  C 357.39 310.94 356.21 313.74 356.24 318.23
  Q 356.28 323.32 356.90 328.36
  Q 356.97 328.90 357.50 328.78
  Q 358.58 328.54 359.61 327.93
  C 362.92 326.00 367.29 325.95 370.95 326.75
  Q 371.47 326.87 371.66 327.37
  Q 371.81 327.77 371.67 328.18
  Q 371.50 328.67 370.98 328.68
  Q 369.00 328.72 368.23 330.38
  Q 367.97 330.95 368.57 331.12
  Q 372.36 332.21 374.49 331.31
  Q 381.73 328.23 390.70 329.66
  A 1.20 1.20 0.0 0 1 391.49 331.54
  C 390.92 332.34 389.35 332.53 388.57 333.24
  C 384.59 336.88 386.36 342.72 379.46 343.52
  A 3.18 3.16 -79.5 0 0 377.00 345.22
  L 375.05 349.01
  A 2.67 2.66 14.1 0 1 372.61 350.46
  L 364.25 350.27
  Q 363.75 350.26 363.82 350.75
  Q 365.53 363.07 367.25 375.27
  C 369.31 389.87 376.29 402.05 384.47 413.98
  Q 384.75 414.40 385.25 414.48
  Q 387.58 414.84 388.65 417.32
  Q 398.21 439.56 407.52 461.91
  C 409.01 465.50 411.50 466.88 411.03 471.57
  C 410.77 474.16 415.09 480.26 416.36 482.87
  C 417.63 485.46 417.27 487.44 417.87 489.90
  Q 417.98 490.37 418.44 490.51
  Q 419.60 490.86 420.58 491.60
  Q 421.02 491.93 421.02 492.49
  L 420.96 501.76
  A 0.45 0.45 0.0 0 1 420.51 502.21
  L 387.21 502.08
  Q 386.55 502.08 386.54 501.42
  L 386.40 493.51
  Q 386.39 492.81 387.04 492.55
  Q 387.84 492.22 388.47 491.61
  Q 388.82 491.27 388.79 490.78
  Q 388.44 484.20 393.10 479.84
  A 2.06 2.04 -52.6 0 0 392.68 476.52
  C 391.87 476.10 391.01 475.39 390.66 474.37
  Q 387.42 464.81 383.12 460.13
  Q 373.94 450.11 365.26 439.66
  C 362.60 436.44 360.38 434.52 360.50 430.03
  A 2.62 2.62 0.0 0 0 359.40 427.82
  L 357.45 426.44
  Q 356.95 426.09 356.92 425.48
  C 356.79 423.32 356.54 421.61 355.03 419.91
  C 351.79 416.28 348.98 413.97 347.58 408.71
  C 345.71 401.72 343.83 395.19 340.50 388.60
  C 336.14 380.02 332.50 372.23 326.44 366.86
  A 2.04 2.03 -49.1 0 0 323.55 367.07
  L 321.84 369.10
  Q 321.46 369.55 320.97 369.23
  L 319.86 368.52
  Q 319.72 368.44 319.58 368.50
  L 319.29 368.64
  Q 318.87 368.83 319.18 369.17
  Q 323.97 374.62 328.64 380.12
  Q 330.79 382.65 331.59 385.34
  Q 333.96 393.24 332.54 400.74
  C 331.84 404.46 327.05 406.94 324.54 409.64
  Q 324.19 410.01 324.15 410.51
  Q 323.84 413.75 320.99 415.45
  Q 312.98 420.22 306.58 425.32
  C 304.64 426.86 303.21 428.59 303.10 431.27
  C 302.50 445.67 305.65 458.08 309.00 471.88
  C 309.72 474.86 309.50 477.51 309.35 480.49
  C 308.69 494.42 306.44 509.35 301.17 522.35
  A 0.18 0.18 0.0 0 1 300.87 522.40
  C 288.81 508.18 269.48 504.15 251.80 503.86
  A 0.45 0.44 -5.5 0 1 251.36 503.50
  C 250.39 498.84 253.16 495.94 255.51 492.41
  A 1.17 1.17 0.0 0 0 255.08 490.72
  C 250.90 488.57 244.46 487.33 244.44 481.39
  C 244.43 478.81 246.77 476.22 243.38 473.90
  C 239.09 470.95 234.13 472.16 229.16 471.38
  A 0.55 0.54 16.2 0 1 228.74 470.63
  C 229.59 468.68 231.98 467.53 233.76 466.39
  Q 234.18 466.12 234.12 465.62
  C 233.36 458.74 225.38 466.84 222.79 462.86
  Q 222.44 462.32 221.92 462.70
  L 211.55 470.30
  Q 211.13 470.61 210.61 470.68
  C 205.86 471.33 200.74 471.17 196.40 472.91
  C 189.88 475.51 185.45 477.93 176.79 479.40
  C 161.66 481.97 142.04 487.18 131.49 499.46
  Q 130.89 500.16 129.00 500.27
  C 124.89 500.51 122.26 501.47 118.52 504.37
  C 113.41 508.33 105.68 510.20 99.74 509.46
  Q 97.62 509.19 97.10 506.32
  Q 97.02 505.87 97.22 505.47
  Q 99.49 500.97 101.17 496.23
  Q 101.96 493.99 105.50 493.82
  C 109.60 493.63 114.04 493.40 117.83 491.67
  C 119.99 490.68 121.73 489.58 124.18 489.18
  C 133.48 487.67 141.67 481.02 149.21 475.73
  Q 150.00 475.17 150.14 474.66
  Q 150.32 474.03 149.67 474.13
  Q 90.93 483.77 34.50 500.30
  Q 16.20 505.65 2.05 510.65
  A 0.34 0.33 74.8 0 1 1.61 510.39
  L 1.55 510.06
  Q 1.53 509.93 1.65 509.88
  C 55.27 485.27 112.82 468.31 171.50 457.20
  C 173.99 456.73 176.25 456.57 178.43 455.95
  Q 184.70 454.17 190.25 454.79
  Q 194.40 455.26 196.61 454.93
  A 2.44 2.39 12.0 0 0 198.28 453.87
  L 198.49 453.54
  Q 199.22 452.44 197.90 452.52
  Z
  M 315.56 149.99
  Q 317.51 150.48 316.15 151.96
  Q 315.85 152.29 315.69 152.79
  Q 315.48 153.46 316.18 153.53
  L 318.09 153.73
  A 0.64 0.62 3.4 0 0 318.79 153.12
  Q 318.88 148.94 314.87 147.60
  Q 313.89 147.27 313.14 147.99
  L 312.90 148.24
  A 0.69 0.69 0.0 0 0 313.21 149.40
  L 315.56 149.99
  Z
  M 320.77 165.59
  Q 320.74 166.38 319.97 166.23
  Q 317.79 165.81 317.16 167.71
  A 0.47 0.47 0.0 0 0 317.59 168.33
  C 318.90 168.38 320.83 167.69 321.83 168.16
  Q 323.02 168.71 322.75 170.50
  Q 322.38 172.96 322.22 175.47
  Q 322.19 175.99 322.68 176.17
  Q 325.85 177.33 327.13 179.12
  C 333.83 188.54 342.76 198.91 347.65 207.94
  Q 348.78 210.03 346.87 211.48
  Q 346.48 211.77 346.54 212.24
  C 346.84 214.50 347.93 216.54 348.34 218.61
  C 349.02 221.96 349.52 223.91 351.81 226.84
  Q 355.14 231.09 355.79 236.62
  Q 355.79 236.62 355.80 236.63
  Q 355.92 236.74 356.02 236.81
  Q 356.19 236.94 356.20 236.73
  C 356.40 233.33 356.44 230.58 355.29 227.22
  Q 353.42 221.72 351.75 216.15
  C 350.56 212.18 351.55 208.71 349.22 205.03
  C 342.90 195.07 335.64 187.34 328.69 178.51
  C 326.15 175.29 326.13 171.16 325.96 167.25
  C 325.83 164.31 322.55 162.53 322.03 159.23
  Q 321.93 158.65 321.46 158.30
  Q 319.00 156.54 316.02 157.07
  A 1.14 1.12 -84.3 0 0 315.16 157.79
  L 314.85 158.65
  A 0.32 0.32 0.0 0 0 315.29 159.04
  Q 317.86 157.73 320.44 159.00
  Q 320.81 159.18 320.87 159.59
  Q 320.98 160.43 320.24 160.29
  Q 315.71 159.43 313.03 163.41
  A 1.03 1.03 0.0 0 0 313.98 165.01
  L 320.00 164.43
  A 0.71 0.71 0.0 0 1 320.78 165.16
  L 320.77 165.59
  Z
  M 307.83 209.92
  C 309.75 206.76 315.71 206.01 318.25 208.32
  Q 318.63 208.66 319.14 208.64
  C 323.87 208.40 326.89 212.29 330.72 214.43
  C 336.42 217.62 335.01 222.71 338.42 226.84
  A 1.48 1.47 25.3 0 1 338.76 227.78
  L 338.74 233.48
  Q 338.73 234.08 339.02 233.55
  L 340.72 230.47
  A 1.14 1.13 48.8 0 0 340.78 229.52
  Q 338.83 224.71 337.02 219.84
  C 334.87 214.06 331.42 209.82 330.16 203.53
  C 328.66 196.10 327.21 189.10 324.92 181.83
  A 2.54 2.54 0.0 0 0 322.75 180.06
  C 318.66 179.64 319.03 174.33 314.04 175.28
  A 0.67 0.67 0.0 0 1 313.25 174.74
  L 313.03 173.50
  Q 312.69 171.66 311.85 173.17
  Q 311.63 173.57 311.48 175.00
  C 311.03 179.43 309.98 183.66 310.00 188.03
  Q 310.03 194.52 309.97 201.00
  Q 309.95 203.13 307.12 208.99
  A 0.62 0.62 0.0 0 0 307.25 209.70
  L 307.50 209.96
  Q 307.69 210.14 307.83 209.92
  Z
  M 314.09 230.20
  Q 313.91 231.47 312.60 231.51
  Q 312.08 231.53 312.18 232.04
  Q 312.22 232.29 312.36 232.53
  Q 312.54 232.84 313.02 233.10
  Q 314.60 233.95 315.55 234.86
  Q 317.62 236.84 314.82 236.24
  Q 314.59 236.20 313.65 235.44
  Q 313.12 235.01 313.38 235.64
  Q 314.56 238.43 311.87 240.34
  Q 311.27 240.76 311.69 241.37
  Q 312.58 242.65 314.99 242.14
  Q 319.80 241.12 324.14 239.49
  A 0.62 0.61 -87.5 0 1 324.91 240.33
  L 322.76 244.88
  A 2.61 2.60 24.8 0 0 324.05 248.37
  Q 324.93 248.76 326.28 249.50
  Q 327.62 250.25 326.54 251.80
  Q 326.31 252.12 325.92 252.15
  Q 322.47 252.41 320.87 255.51
  Q 320.56 256.11 321.22 256.28
  Q 322.59 256.62 324.00 256.37
  Q 324.15 256.34 324.21 256.48
  Q 324.28 256.62 324.34 256.76
  Q 324.46 256.99 324.24 257.14
  C 321.14 259.34 321.00 263.27 321.55 266.63
  Q 321.63 267.14 322.03 266.81
  L 327.21 262.53
  Q 327.54 262.26 327.98 262.27
  L 329.48 262.30
  A 0.82 0.81 14.0 0 0 330.22 261.86
  Q 331.33 259.66 333.76 260.20
  A 0.75 0.74 -71.5 0 0 334.61 259.77
  L 337.94 251.94
  A 0.38 0.38 0.0 0 0 337.35 251.50
  Q 336.24 252.41 335.83 253.78
  A 0.95 0.95 0.0 0 1 334.30 254.22
  C 332.20 252.38 326.47 248.42 326.71 245.50
  Q 326.96 242.39 327.02 239.25
  C 327.09 236.22 328.44 236.07 330.88 235.15
  Q 331.50 234.92 331.31 234.28
  Q 330.79 232.55 329.38 231.31
  Q 328.88 230.87 328.62 231.49
  Q 328.25 232.36 327.24 232.42
  Q 326.63 232.45 326.66 231.84
  L 326.98 225.11
  A 0.70 0.70 0.0 0 1 327.62 224.45
  Q 332.94 224.02 335.19 228.76
  Q 335.37 229.13 335.32 229.54
  Q 335.06 231.54 335.28 232.56
  Q 336.11 236.35 336.48 232.50
  L 336.85 228.63
  A 1.02 1.00 26.7 0 0 336.59 227.86
  L 334.38 225.41
  Q 333.54 224.48 334.31 223.49
  Q 334.55 223.18 334.52 222.62
  C 334.45 220.68 329.70 216.62 328.14 215.50
  Q 327.69 215.18 327.39 215.64
  Q 327.15 216.01 327.20 216.50
  Q 327.25 217.03 326.72 217.09
  L 326.18 217.16
  Q 325.52 217.23 325.43 216.58
  Q 325.16 214.75 324.19 213.25
  Q 323.33 211.91 322.65 213.34
  L 321.96 214.80
  A 0.64 0.64 0.0 0 1 320.94 214.99
  L 317.51 211.64
  Q 317.11 211.25 316.69 211.62
  Q 314.90 213.21 312.81 211.85
  Q 312.23 211.47 312.39 212.14
  Q 312.93 214.43 314.54 216.16
  Q 314.95 216.59 315.28 216.10
  L 316.60 214.14
  A 0.51 0.51 0.0 0 1 317.40 214.06
  L 319.89 216.61
  Q 320.24 216.97 320.75 216.96
  C 324.33 216.87 325.39 222.02 324.86 224.77
  A 0.59 0.58 22.4 0 1 323.96 225.14
  L 321.84 223.72
  Q 321.36 223.39 321.22 223.96
  L 321.02 224.72
  Q 320.87 225.30 320.28 225.28
  L 318.92 225.23
  A 0.65 0.65 0.0 0 0 318.25 225.83
  L 318.19 226.54
  A 0.82 0.82 0.0 0 1 316.87 227.12
  Q 316.08 226.50 315.09 226.31
  Q 314.63 226.22 314.39 225.81
  Q 313.38 224.08 311.74 222.92
  A 0.33 0.33 0.0 0 0 311.23 223.29
  L 311.68 224.85
  A 0.98 0.97 56.5 0 1 311.50 225.75
  Q 311.09 226.27 311.03 226.92
  Q 310.98 227.45 311.41 227.75
  L 313.76 229.42
  Q 314.16 229.71 314.09 230.20
  Z
  M 309.77 245.00
  A 2.37 2.00 73.6 0 1 306.62 242.92
  C 306.48 240.91 306.43 239.38 305.15 237.59
  Q 303.62 235.47 302.58 233.01
  Q 302.27 232.27 302.16 233.07
  C 301.80 235.64 302.05 238.79 303.95 240.75
  C 306.07 242.96 306.51 245.87 307.27 248.73
  Q 307.42 249.27 307.99 249.27
  L 309.53 249.27
  Q 310.33 249.27 310.55 248.50
  Q 311.00 246.95 310.66 245.34
  A 0.52 0.52 0.0 0 0 310.33 244.96
  Q 310.01 244.84 309.77 245.00
  Z
  M 353.01 252.55
  L 348.65 249.14
  Q 347.50 248.23 347.82 249.66
  Q 350.23 260.22 352.34 270.03
  Q 352.67 271.57 352.09 271.85
  A 2.93 2.56 -18.7 0 1 348.03 270.17
  Q 347.67 268.08 346.63 266.35
  A 1.82 1.82 0.0 0 0 344.36 265.60
  L 344.10 265.70
  Q 342.28 266.46 342.87 268.33
  L 350.26 292.21
  A 1.10 1.10 0.0 0 0 351.91 292.81
  Q 352.87 292.19 353.07 293.56
  Q 354.09 300.53 352.24 307.30
  Q 352.18 307.50 352.38 307.56
  L 352.39 307.57
  Q 352.61 307.64 352.66 307.51
  L 356.89 295.70
  A 5.48 5.47 49.2 0 0 357.10 292.78
  Q 356.04 287.49 354.35 281.73
  Q 353.82 279.92 355.07 279.41
  A 1.22 1.21 77.0 0 0 355.82 278.20
  Q 355.45 272.85 356.46 267.59
  A 2.33 2.32 -63.7 0 0 355.74 265.44
  L 352.42 262.42
  A 0.92 0.91 22.5 0 1 352.12 261.70
  L 352.29 258.13
  A 1.55 1.55 0.0 0 1 354.00 256.66
  Q 356.87 256.95 358.81 254.75
  A 0.58 0.58 0.0 0 1 359.61 254.68
  Q 360.76 255.62 362.31 255.22
  Q 362.85 255.08 362.73 254.54
  Q 362.46 253.33 361.15 252.88
  C 354.81 250.70 352.88 247.72 350.05 241.87
  Q 349.56 240.84 349.65 241.98
  Q 350.07 246.98 353.41 251.53
  Q 353.61 251.82 353.50 252.37
  Q 353.39 252.85 353.01 252.55
  Z
  M 276.28 318.05
  Q 274.39 319.17 274.38 321.52
  A 0.78 0.78 0.0 0 1 273.78 322.27
  L 272.61 322.55
  Q 272.02 322.70 272.08 323.30
  Q 272.25 325.06 273.68 325.35
  C 275.07 325.63 276.88 324.27 278.78 324.37
  Q 279.21 324.40 279.25 324.82
  C 279.67 328.83 277.63 330.38 275.09 332.51
  A 1.31 1.29 71.6 0 0 274.62 333.47
  Q 274.48 336.78 271.40 338.13
  Q 270.92 338.34 270.49 338.04
  Q 268.82 336.89 267.10 337.88
  Q 266.62 338.15 266.09 338.25
  C 261.40 339.12 252.24 349.34 250.70 351.22
  C 248.21 354.22 249.94 357.64 252.19 359.49
  Q 254.31 361.24 253.39 358.65
  C 252.65 356.55 252.51 351.57 256.18 352.24
  Q 256.66 352.33 257.07 352.05
  L 260.51 349.75
  Q 261.23 349.27 261.20 350.14
  Q 261.16 351.41 261.66 352.55
  Q 261.88 353.06 262.42 352.91
  C 272.58 350.19 280.27 338.13 285.69 329.31
  Q 286.26 328.38 286.36 329.47
  L 286.97 336.48
  A 1.05 1.05 0.0 0 0 288.48 337.34
  C 292.00 335.62 295.72 333.88 299.71 333.41
  Q 300.21 333.35 300.61 333.67
  C 302.07 334.85 306.13 337.51 305.10 339.65
  A 1.53 1.53 0.0 0 1 303.07 340.36
  Q 299.79 338.83 296.09 338.71
  Q 295.29 338.68 294.89 339.38
  L 294.69 339.74
  A 0.40 0.40 0.0 0 0 294.99 340.34
  Q 300.58 340.98 305.72 343.21
  A 2.75 2.75 0.0 0 1 307.17 344.70
  L 307.49 345.50
  A 0.53 0.53 0.0 0 1 306.74 346.17
  Q 305.39 345.44 303.80 345.34
  Q 301.69 345.20 303.03 346.83
  L 304.75 348.93
  A 0.88 0.87 -19.0 0 1 304.05 350.36
  C 300.12 350.28 300.15 353.39 299.83 356.79
  Q 299.14 364.16 298.64 371.55
  C 298.48 373.85 299.10 376.04 299.55 378.29
  Q 300.03 380.61 298.33 380.55
  A 1.18 1.18 0.0 0 0 297.19 382.16
  C 298.55 385.58 300.02 388.55 299.96 392.30
  C 299.82 402.27 298.33 412.59 297.10 422.49
  C 296.89 424.19 296.66 427.32 294.37 427.61
  Q 293.80 427.67 293.33 428.00
  L 288.39 431.38
  A 0.91 0.91 0.0 0 0 288.37 432.87
  Q 289.10 433.40 289.65 432.89
  A 0.49 0.49 0.0 0 1 290.48 433.24
  L 290.50 438.78
  Q 290.50 439.23 290.79 439.57
  C 292.69 441.83 292.01 445.52 292.07 448.46
  A 0.42 0.41 -87.6 0 0 292.43 448.86
  L 292.78 448.89
  A 0.62 0.62 0.0 0 0 293.47 448.27
  L 293.52 443.01
  Q 293.52 441.90 294.32 442.67
  L 294.54 442.88
  Q 294.88 443.20 295.29 442.98
  Q 296.08 442.55 296.62 441.86
  Q 297.11 441.23 297.17 442.02
  L 297.24 442.89
  A 0.83 0.82 -25.7 0 1 297.00 443.56
  C 295.69 444.90 294.46 446.21 295.68 448.19
  Q 295.93 448.61 296.31 448.31
  C 298.55 446.54 300.03 444.96 299.91 441.83
  C 299.65 435.23 299.52 428.80 300.34 422.09
  Q 302.16 407.03 304.22 392.00
  Q 304.37 390.91 304.46 388.50
  C 304.61 384.50 301.78 380.87 302.34 377.09
  C 302.94 373.07 302.88 370.45 306.95 368.34
  Q 307.40 368.10 307.56 367.61
  Q 307.94 366.37 307.75 365.00
  Q 306.96 359.60 307.23 354.57
  Q 307.26 353.87 307.76 353.36
  Q 309.12 351.97 310.30 359.96
  Q 310.45 360.98 310.90 360.05
  L 313.85 354.01
  A 1.85 1.85 0.0 0 0 313.74 352.19
  L 312.20 349.83
  Q 311.97 349.48 311.99 349.05
  L 312.11 346.23
  A 1.87 1.84 -60.3 0 0 311.83 345.18
  L 310.39 342.81
  A 1.58 1.54 -57.9 0 1 310.18 341.83
  C 310.70 337.36 309.68 334.72 306.42 331.36
  C 304.96 329.86 302.78 326.18 300.75 325.81
  Q 295.48 324.86 290.22 325.94
  C 284.92 327.03 286.14 322.85 285.27 319.83
  Q 285.10 319.23 284.59 319.58
  L 280.30 322.58
  A 0.31 0.31 0.0 0 1 279.86 322.16
  C 281.74 319.16 284.47 317.61 285.20 313.50
  Q 285.68 310.80 284.62 304.31
  Q 284.54 303.86 284.11 303.69
  C 279.50 301.90 276.09 298.24 272.92 294.64
  A 0.93 0.93 0.0 0 0 271.90 294.38
  C 268.48 295.61 265.25 297.72 266.07 301.98
  A 1.02 1.02 0.0 0 0 267.18 302.80
  C 271.82 302.30 270.25 309.55 269.98 312.16
  A 1.14 1.11 -58.7 0 0 270.15 312.91
  L 272.61 316.80
  Q 272.89 317.23 273.40 317.30
  Q 275.40 317.58 277.24 316.72
  A 0.12 0.12 0.0 0 1 277.41 316.81
  Q 277.48 317.23 276.99 317.44
  A 0.58 0.55 32.6 0 1 276.78 317.48
  Q 276.43 317.45 276.40 317.85
  Q 276.39 317.98 276.28 318.05
  Z
  M 265.98 311.64
  Q 266.94 310.68 266.20 309.56
  A 0.74 0.74 0.0 0 0 265.02 309.47
  Q 264.15 310.45 264.83 311.52
  Q 265.33 312.31 265.98 311.64
  Z
  M 357.08 333.58
  Q 357.12 333.93 356.10 334.86
  Q 353.94 336.83 352.84 337.99
  Q 350.05 340.96 353.82 339.39
  C 355.35 338.75 357.89 337.54 359.72 337.92
  C 362.21 338.44 363.61 340.81 366.44 339.70
  C 372.16 337.45 375.75 333.32 382.71 332.05
  Q 383.41 331.92 382.73 331.70
  C 378.59 330.38 373.99 335.26 370.13 333.91
  Q 367.08 332.85 363.89 332.13
  Q 363.37 332.02 363.32 331.48
  Q 363.16 329.67 364.72 329.33
  A 0.34 0.34 0.0 0 0 364.97 328.88
  L 364.85 328.56
  Q 364.77 328.33 364.55 328.43
  Q 362.21 329.51 359.82 330.43
  C 354.29 332.58 350.33 330.59 345.17 327.49
  C 341.95 325.55 339.44 328.41 338.49 331.12
  Q 338.32 331.57 337.84 331.57
  Q 335.62 331.58 333.43 331.20
  Q 333.31 331.18 333.27 331.29
  L 333.17 331.55
  Q 332.95 332.15 333.53 332.41
  C 334.66 332.91 343.34 335.50 343.43 335.60
  Q 343.68 335.94 343.52 336.40
  Q 343.37 336.85 342.90 336.96
  C 337.91 338.14 334.83 339.71 329.31 338.39
  Q 328.39 338.17 327.57 338.64
  L 327.28 338.81
  A 0.53 0.53 0.0 0 0 327.40 339.78
  L 337.38 342.46
  A 5.40 5.37 -48.6 0 0 340.83 342.23
  C 346.55 339.86 350.23 336.22 355.30 332.77
  Q 356.85 331.72 357.08 333.58
  Z
  M 359.59 399.83
  Q 358.64 399.44 356.31 398.71
  Q 355.79 398.54 356.09 399.00
  Q 356.93 400.27 359.07 401.48
  C 360.92 402.53 363.38 407.27 365.79 407.61
  Q 366.32 407.69 366.73 408.03
  Q 368.82 409.78 369.60 412.44
  A 0.71 0.71 0.0 0 0 370.32 412.96
  Q 372.48 412.84 374.54 413.53
  Q 375.02 413.69 375.31 414.10
  Q 376.49 415.71 377.10 417.61
  Q 377.29 418.19 377.89 418.22
  L 383.31 418.53
  A 1.81 1.80 1.0 0 1 385.02 420.30
  L 385.03 420.85
  A 0.97 0.96 4.2 0 1 383.90 421.82
  L 380.02 421.16
  A 0.39 0.39 0.0 0 0 379.58 421.45
  Q 379.53 421.61 379.49 421.78
  Q 379.43 422.04 379.64 422.20
  C 383.11 424.72 388.28 432.65 388.01 437.02
  C 387.88 439.07 387.08 439.62 388.00 441.99
  Q 389.90 446.87 391.37 449.87
  A 0.31 0.30 -63.0 0 0 391.94 449.68
  L 391.05 444.14
  Q 391.01 443.92 391.22 443.84
  L 391.52 443.72
  Q 391.69 443.65 391.76 443.81
  L 399.45 460.85
  A 0.95 0.95 0.0 0 1 399.35 461.79
  Q 398.34 463.16 398.95 464.74
  A 1.18 1.17 -39.3 0 1 398.84 465.79
  Q 398.27 466.66 398.15 467.68
  Q 398.08 468.27 398.64 468.07
  Q 399.58 467.74 400.34 467.03
  Q 400.70 466.69 401.18 466.61
  Q 404.42 466.05 405.90 468.89
  Q 406.17 469.40 405.63 469.60
  Q 403.53 470.35 401.36 470.01
  Q 400.61 469.89 400.93 470.58
  Q 401.80 472.41 400.48 473.68
  A 0.65 0.65 0.0 0 0 400.39 474.50
  Q 401.56 476.32 401.21 478.51
  Q 401.04 479.54 402.06 479.79
  C 403.95 480.26 407.89 481.40 408.08 483.77
  Q 408.12 484.34 407.57 484.44
  C 406.25 484.70 405.26 485.28 403.94 485.36
  Q 401.11 485.52 398.60 485.67
  Q 397.84 485.72 398.08 486.44
  L 398.18 486.74
  Q 398.47 487.64 399.41 487.51
  C 402.83 487.04 407.88 486.63 408.98 490.89
  A 0.76 0.75 -19.2 0 1 408.55 491.77
  L 406.96 492.49
  Q 406.54 492.68 406.48 493.14
  Q 406.44 493.44 406.65 493.65
  Q 406.88 493.89 407.42 493.86
  Q 412.20 493.65 416.98 493.86
  Q 417.46 493.88 417.55 493.41
  Q 417.59 493.21 417.49 493.00
  Q 417.37 492.75 416.91 492.50
  C 412.72 490.25 415.58 486.16 412.73 482.81
  C 408.95 478.36 408.80 474.08 407.85 468.62
  A 1.51 1.49 -74.2 0 0 407.39 467.78
  Q 404.86 465.51 404.33 464.19
  Q 397.52 447.17 390.45 430.25
  C 389.16 427.19 385.41 417.13 382.44 416.02
  Q 377.89 414.32 376.53 412.23
  Q 370.34 402.77 364.20 393.29
  Q 361.49 389.12 361.03 386.25
  Q 359.17 374.76 357.28 363.29
  C 356.91 361.00 353.97 359.71 351.95 358.63
  Q 351.49 358.39 350.98 358.34
  Q 350.47 358.28 350.18 357.89
  Q 349.88 357.49 349.43 357.72
  C 347.78 358.57 348.83 360.73 349.36 361.93
  Q 351.97 367.82 354.52 373.76
  Q 354.75 374.29 354.22 374.53
  Q 353.74 374.75 353.23 374.57
  A 0.62 0.61 -75.2 0 0 352.41 375.05
  C 351.58 380.48 353.78 383.26 355.62 387.82
  Q 355.88 388.46 355.19 388.51
  L 354.02 388.58
  Q 353.62 388.61 353.63 389.00
  Q 353.64 389.98 354.20 390.52
  Q 358.23 394.41 361.00 397.95
  Q 363.81 401.54 359.59 399.83
  Z
  M 242.86 407.57
  Q 243.32 406.07 242.24 404.97
  A 1.19 1.17 28.9 0 1 241.92 403.88
  Q 242.26 402.32 242.15 402.11
  Q 240.08 398.43 239.55 402.55
  Q 239.08 406.29 236.14 408.63
  A 0.90 0.89 67.5 0 0 235.81 409.44
  Q 236.01 411.33 235.10 412.33
  C 229.23 418.82 222.77 425.36 218.21 432.35
  Q 214.34 438.30 211.07 444.63
  Q 210.85 445.06 210.86 445.54
  Q 210.87 447.95 208.88 451.11
  Q 208.15 452.26 209.34 451.59
  C 212.29 449.93 215.23 443.26 216.68 440.21
  C 217.72 438.04 229.75 417.06 234.24 423.30
  C 235.67 425.27 235.95 429.54 236.30 432.18
  A 0.42 0.42 0.0 0 0 237.00 432.43
  Q 237.27 432.18 237.37 431.63
  Q 238.41 425.59 237.71 419.51
  C 237.40 416.77 240.54 415.01 242.33 413.28
  Q 242.69 412.93 242.81 412.46
  Q 243.15 411.12 243.43 409.77
  Q 243.49 409.48 243.42 409.25
  Q 243.31 408.86 243.07 408.57
  A 1.06 1.05 -57.1 0 1 242.86 407.57
  Z
  M 389.07 454.20
  C 383.23 444.08 377.89 434.52 374.16 423.37
  A 0.25 0.25 0.0 0 0 373.84 423.21
  L 373.56 423.31
  A 0.41 0.41 0.0 0 0 373.30 423.84
  Q 378.97 440.11 388.75 454.27
  Q 388.90 454.48 389.01 454.41
  L 389.02 454.41
  Q 389.15 454.33 389.07 454.20
  Z
  M 285.17 456.90
  L 290.36 457.02
  A 0.87 0.87 0.0 0 0 291.25 456.14
  L 291.25 450.25
  Q 291.25 449.73 290.76 449.56
  C 287.96 448.55 290.04 446.34 288.78 444.45
  Q 288.39 443.87 288.31 444.56
  Q 287.95 447.64 288.91 450.53
  Q 289.42 452.06 287.82 451.87
  L 287.34 451.81
  Q 285.97 451.65 285.80 450.28
  C 285.25 446.04 286.31 441.57 285.24 437.20
  Q 285.12 436.70 284.61 436.62
  L 283.78 436.48
  Q 283.25 436.40 283.23 435.86
  Q 283.18 433.42 284.28 431.33
  A 1.99 1.98 15.7 0 0 282.64 428.42
  Q 281.30 428.34 280.53 429.09
  A 0.89 0.88 62.7 0 0 280.28 429.89
  L 281.39 435.89
  Q 281.49 436.42 280.95 436.41
  Q 278.96 436.35 278.82 438.50
  C 278.56 442.31 280.10 445.42 280.32 448.02
  Q 280.67 452.05 278.86 455.77
  Q 278.20 457.11 279.03 461.88
  Q 279.11 462.34 279.53 462.54
  Q 280.49 463.01 280.43 464.10
  Q 280.40 464.65 279.67 465.79
  C 278.54 467.53 277.87 471.50 280.24 472.76
  A 0.75 0.74 18.5 0 1 280.63 473.53
  Q 280.00 477.91 277.78 481.73
  A 0.95 0.94 -72.1 0 0 278.50 483.15
  L 281.89 483.47
  Q 282.48 483.53 282.97 483.20
  Q 283.86 482.60 284.73 483.18
  A 0.47 0.47 0.0 0 0 285.44 482.66
  C 284.37 478.97 281.57 475.96 283.84 471.97
  Q 285.83 468.47 282.95 465.19
  Q 282.57 464.75 282.76 464.21
  Q 283.25 462.83 284.19 461.68
  A 1.18 1.15 66.2 0 0 284.46 460.96
  L 284.59 457.45
  Q 284.61 456.88 285.17 456.90
  Z"
/>
<path fill="#FFFFFF" d="
  M 317.37 162.95
  Q 316.91 163.11 316.46 162.94
  A 0.30 0.30 0.0 0 1 316.46 162.38
  L 319.48 161.27
  A 0.66 0.65 19.1 0 1 320.05 162.44
  Q 319.09 163.02 317.90 162.89
  Q 317.63 162.85 317.37 162.95
  Z"
/>
<path fill="#FFFFFF" d="
  M 273.73 304.57
  L 272.75 304.35
  Q 272.20 304.23 272.04 303.69
  Q 271.91 303.21 272.11 302.76
  Q 272.28 302.36 272.80 302.15
  Q 276.34 300.70 279.77 302.44
  A 0.67 0.67 0.0 0 1 280.13 302.98
  L 280.16 303.52
  Q 280.20 304.24 279.50 304.30
  Q 278.21 304.43 277.84 305.72
  A 0.98 0.97 85.2 0 1 277.33 306.33
  Q 275.17 307.38 274.45 305.21
  Q 274.28 304.68 273.73 304.57
  Z"
/>
<path fill="#FFFFFF" d="
  M 273.12 314.75
  Q 272.71 314.21 272.81 313.56
  A 0.46 0.46 0.0 0 1 273.70 313.49
  Q 273.90 314.15 273.57 314.72
  Q 273.37 315.08 273.12 314.75
  Z"
/>
<path fill="#FFFFFF" d="
  M 140.02 390.47
  C 134.46 392.25 134.12 399.38 138.10 402.70
  C 141.69 405.68 149.20 405.11 154.01 404.89
  Q 154.95 404.85 154.24 405.46
  C 150.86 408.39 145.81 410.99 143.64 414.85
  C 142.07 417.66 142.58 420.88 145.53 422.37
  C 147.34 423.27 149.86 422.93 151.77 422.35
  A 2.47 2.44 -37.9 0 1 153.72 422.58
  Q 158.53 425.41 160.72 430.50
  Q 165.64 441.96 170.33 453.89
  A 0.43 0.42 -12.3 0 1 169.96 454.46
  Q 168.93 454.53 168.27 455.28
  A 1.23 1.23 0.0 0 1 166.53 455.39
  Q 131.09 423.90 112.55 380.20
  A 0.49 0.49 0.0 0 1 112.98 379.52
  Q 126.13 378.98 137.76 385.10
  C 139.62 386.08 140.17 387.68 140.54 389.58
  A 0.77 0.77 0.0 0 1 140.02 390.47
  Z"
/>
<path fill="#FFFFFF" d="
  M 310.40 451.38
  Q 326.68 451.17 341.75 452.08
  Q 343.11 452.17 346.49 451.17
  Q 354.66 448.78 362.42 445.52
  A 1.12 1.11 -30.8 0 1 363.70 445.84
  Q 370.74 454.37 378.30 462.90
  Q 381.17 466.14 383.17 469.92
  A 0.48 0.47 76.7 0 1 382.74 470.62
  C 377.74 470.54 371.25 469.77 367.82 469.52
  Q 340.70 467.56 313.73 467.18
  A 0.90 0.90 0.0 0 1 312.86 466.47
  L 309.64 452.33
  Q 309.43 451.39 310.40 451.38
  Z"
/>
<path fill="#FFFFFF" d="
  M 238.75 579.74
  L 238.75 663.47
  A 0.61 0.61 0.0 0 1 238.14 664.08
  L 194.68 664.10
  Q 194.00 664.10 194.00 663.43
  L 194.00 580.01
  A 0.75 0.75 0.0 0 0 193.25 579.26
  L 136.27 579.23
  A 0.81 0.81 0.0 0 0 135.67 580.59
  Q 144.36 589.91 152.76 599.26
  C 165.37 613.28 163.69 636.43 152.75 650.08
  C 143.06 662.16 130.79 664.09 116.00 664.08
  Q 59.18 664.06 2.53 664.09
  A 0.52 0.52 0.0 0 1 2.01 663.57
  Q 1.98 641.75 2.01 620.00
  Q 2.02 619.44 2.43 619.18
  Q 2.83 618.92 3.24 619.18
  Q 3.59 619.41 3.98 619.32
  Q 4.41 619.23 4.54 619.23
  Q 53.50 619.40 102.78 619.16
  A 1.04 1.04 0.0 0 0 103.62 617.51
  C 97.41 608.90 88.04 602.75 83.63 593.05
  C 78.83 582.48 77.80 570.54 83.16 559.90
  C 88.34 549.62 97.42 542.39 108.83 539.49
  Q 113.88 538.21 122.29 538.21
  Q 206.73 538.24 291.17 538.18
  A 0.48 0.38 -51.3 0 0 291.35 538.14
  L 291.98 537.84
  A 0.71 0.71 0.0 0 1 292.99 538.48
  L 293.00 578.51
  Q 293.00 579.28 292.24 579.28
  L 239.26 579.23
  Q 238.75 579.22 238.75 579.74
  Z"
/>
<path fill="#FFFFFF" d="
  M 327.50 646.31
  L 322.24 663.48
  Q 322.13 663.83 321.76 663.83
  L 275.58 663.83
  A 0.41 0.40 8.5 0 1 275.19 663.31
  L 312.53 538.48
  Q 312.71 537.87 313.35 537.94
  Q 316.01 538.26 319.00 538.26
  Q 350.02 538.26 381.04 538.16
  Q 381.25 538.16 381.43 538.06
  Q 381.73 537.90 381.79 537.89
  A 0.91 0.83 76.4 0 1 382.75 538.54
  L 421.08 663.24
  A 0.47 0.46 81.6 0 1 420.64 663.84
  L 376.08 663.83
  A 0.74 0.73 -8.6 0 1 375.38 663.32
  L 370.17 646.32
  A 0.74 0.73 81.4 0 0 369.47 645.80
  L 328.19 645.80
  Q 327.66 645.80 327.50 646.31
  Z
  M 348.61 577.50
  L 338.34 611.01
  A 0.45 0.45 0.0 0 0 338.77 611.59
  L 358.81 611.57
  A 0.50 0.50 0.0 0 0 359.29 610.92
  L 349.02 577.50
  Q 348.81 576.83 348.61 577.50
  Z"
/>
<path fill="#FFFFFF" d="
  M 479.15 629.09
  Q 478.75 628.69 478.75 629.26
  L 478.75 663.67
  A 0.43 0.43 0.0 0 1 478.32 664.10
  L 429.67 664.09
  Q 429.00 664.09 429.00 663.42
  L 429.00 539.19
  Q 429.00 538.00 430.19 538.01
  C 456.73 538.14 483.25 538.20 509.79 538.21
  Q 521.05 538.21 526.57 539.62
  C 543.09 543.83 556.82 556.99 558.30 574.74
  C 559.86 593.38 552.35 605.90 536.40 614.79
  A 1.49 1.49 0.0 0 0 536.34 617.36
  Q 539.35 619.23 543.00 619.26
  Q 572.69 619.47 602.37 619.20
  Q 602.41 619.20 602.76 619.04
  Q 602.87 618.99 602.99 618.92
  A 0.67 0.67 0.0 0 1 603.99 619.50
  L 604.00 663.76
  Q 604.00 664.14 603.63 664.14
  Q 569.32 664.03 535.00 663.90
  C 526.60 663.87 520.08 663.44 512.45 659.66
  Q 508.42 657.67 503.10 652.56
  Q 490.94 640.87 479.15 629.09
  Z
  M 479.47 574.42
  L 479.53 588.98
  A 0.61 0.61 0.0 0 0 480.14 589.59
  L 505.59 589.50
  A 8.12 7.75 -0.2 0 0 513.68 581.72
  L 513.68 581.44
  A 8.12 7.75 -0.2 0 0 505.53 573.72
  L 480.08 573.81
  A 0.61 0.61 0.0 0 0 479.47 574.42
  Z"
/>
<path fill="#FFFFFF" d="
  M 155.13 800.00
  L 111.78 800.00
  L 97.71 754.22
  Q 97.48 753.47 97.25 754.22
  L 83.19 800.00
  L 40.36 800.00
  L 2.15 675.53
  A 0.40 0.39 81.6 0 1 2.52 675.02
  L 52.24 675.03
  Q 52.98 675.03 53.19 675.75
  L 62.20 707.05
  Q 62.67 708.70 63.15 707.06
  L 72.23 675.55
  A 0.73 0.72 7.9 0 1 72.93 675.03
  L 124.00 675.03
  A 0.64 0.64 0.0 0 1 124.61 675.48
  L 134.44 707.55
  Q 134.81 708.74 135.17 707.55
  L 144.99 675.53
  A 0.74 0.73 -81.4 0 1 145.69 675.01
  L 192.25 675.02
  Q 192.77 675.02 192.62 675.52
  L 155.13 800.00
  Z"
/>
<path fill="#FFFFFF" d="
  M 322.00 800.00
  L 276.26 800.00
  L 271.09 783.17
  A 0.61 0.61 0.0 0 0 270.51 782.74
  L 229.02 782.74
  Q 228.63 782.74 228.51 783.12
  L 223.30 800.00
  L 176.26 800.00
  L 213.54 675.55
  Q 213.69 675.03 214.23 675.03
  L 282.78 675.01
  Q 283.56 675.01 283.79 675.76
  L 322.00 800.00
  Z
  M 250.16 715.01
  Q 249.81 713.85 249.45 715.01
  L 239.34 747.93
  A 0.38 0.38 0.0 0 0 239.70 748.42
  L 259.87 748.40
  Q 260.41 748.40 260.25 747.88
  L 250.16 715.01
  Z"
/>
<path fill="#FFFFFF" d="
  M 538.05 800.00
  L 424.95 800.00
  C 416.90 798.17 411.97 795.06 405.75 788.86
  Q 394.32 777.46 382.81 766.24
  A 0.19 0.19 0.0 0 0 382.48 766.38
  L 382.47 800.00
  L 332.50 800.00
  L 332.50 675.42
  A 0.40 0.40 0.0 0 1 332.90 675.02
  Q 375.75 675.00 418.75 675.04
  Q 432.45 675.06 445.02 683.76
  Q 462.50 695.86 462.13 717.49
  C 461.85 734.03 453.09 744.08 439.53 752.08
  A 0.98 0.97 56.3 0 0 439.25 753.50
  C 440.93 755.72 443.25 756.17 446.16 756.17
  Q 477.03 756.19 508.21 756.17
  A 1.21 1.21 0.0 0 0 509.04 755.84
  Q 510.11 754.84 509.00 753.76
  Q 497.87 742.88 492.60 735.39
  Q 487.06 727.49 485.76 715.74
  C 483.47 695.16 498.89 679.55 518.12 675.85
  Q 522.44 675.02 532.43 675.03
  Q 567.93 675.06 603.27 675.01
  A 0.73 0.73 0.0 0 1 604.00 675.74
  L 604.00 715.74
  Q 604.00 716.19 603.55 716.19
  Q 573.01 716.18 542.27 716.16
  Q 541.98 716.16 541.77 716.29
  Q 541.43 716.50 541.37 716.68
  A 1.20 1.19 31.9 0 0 541.65 717.86
  Q 549.27 725.73 556.69 733.83
  Q 567.12 745.20 567.37 761.06
  C 567.67 779.76 556.59 795.13 538.05 800.00
  Z
  M 382.99 711.47
  L 382.99 726.17
  A 0.58 0.58 0.0 0 0 383.57 726.75
  L 408.52 726.75
  A 8.75 7.86 0.0 0 0 417.27 718.89
  L 417.27 718.75
  A 8.75 7.86 0.0 0 0 408.52 710.89
  L 383.57 710.89
  A 0.58 0.58 0.0 0 0 382.99 711.47
  Z"
/>
</svg>
