<?xml version="1.0" encoding="UTF-8" standalone="no"?>
<!DOCTYPE svg PUBLIC "-//W3C//DTD SVG 1.1//EN" "http://www.w3.org/Graphics/SVG/1.1/DTD/svg11.dtd">
<svg xmlns="http://www.w3.org/2000/svg" version="1.1" viewBox="0.00 0.00 458.00 439.00">
<path fill="#ffffff" d="
  M 235.32 0.00
  L 240.47 0.00
  L 240.48 38.21
  A 0.32 0.32 0.0 0 1 239.99 38.48
  L 229.58 31.66
  Q 227.81 30.50 228.98 32.26
  L 235.93 42.71
  A 0.46 0.46 0.0 0 1 235.53 43.42
  L 219.83 42.89
  Q 216.93 42.79 219.67 43.73
  L 230.18 47.36
  Q 232.32 48.10 230.05 48.11
  L 112.96 48.31
  A 0.37 0.36 26.6 0 1 112.74 47.65
  C 148.97 21.81 190.20 9.32 234.70 9.08
  Q 235.25 9.08 235.25 8.54
  L 235.32 0.00
  Z"
/>
<path fill="#ffffff" d="
  M 248.02 0.00
  L 253.04 0.00
  L 253.01 9.64
  A 0.53 0.52 3.1 0 0 253.48 10.16
  Q 307.71 15.93 352.07 47.28
  Q 353.30 48.16 351.79 48.16
  L 260.80 48.15
  Q 258.31 48.15 260.62 47.24
  L 271.28 43.03
  Q 272.18 42.68 271.22 42.66
  L 253.13 42.31
  Q 252.41 42.29 252.62 41.60
  L 259.45 18.97
  Q 259.85 17.64 259.03 18.76
  L 248.86 32.71
  Q 248.02 33.87 248.02 32.43
  L 248.02 0.00
  Z"
/>
<path fill="#ffffff" d="
  M 214.90 59.60
  C 118.75 70.85 54.81 165.68 82.11 259.23
  Q 82.25 259.70 82.00 260.13
  C 80.54 262.61 79.18 264.00 76.12 264.51
  C 62.39 266.83 49.01 275.22 39.52 284.87
  Q 38.68 285.72 38.30 284.59
  Q 23.69 240.86 27.49 196.75
  C 32.52 138.30 63.20 84.58 110.18 49.49
  A 2.74 2.72 27.1 0 1 111.87 48.95
  L 231.15 51.33
  A 0.19 0.19 0.0 0 1 231.29 51.64
  L 225.98 58.43
  A 0.56 0.55 -72.1 0 1 225.56 58.65
  Q 220.30 58.97 214.90 59.60
  Z"
/>
<path fill="#ffffff" d="
  M 458.00 401.48
  L 458.00 409.42
  Q 403.66 396.19 348.18 389.49
  Q 347.69 389.43 347.37 389.05
  Q 346.17 387.57 346.28 385.98
  C 346.70 380.34 343.66 378.26 341.86 373.76
  Q 335.31 357.40 328.00 341.16
  Q 327.59 340.27 328.37 339.68
  C 364.28 312.22 386.47 269.72 389.16 224.75
  C 393.69 148.82 342.59 80.30 268.73 62.70
  A 4.51 4.39 -15.8 0 1 266.73 61.62
  L 258.22 53.53
  Q 257.37 52.72 258.54 52.69
  L 355.51 50.26
  Q 356.02 50.25 356.43 50.56
  C 463.79 131.75 466.33 291.54 361.43 376.59
  Q 360.29 377.52 361.76 377.57
  Q 362.76 377.61 364.38 377.91
  Q 412.13 386.73 458.00 401.48
  Z"
/>
<path fill="#ffffff" d="
  M 0.00 405.66
  L 0.00 398.64
  Q 0.68 397.81 2.42 397.35
  Q 4.61 396.77 4.73 396.73
  Q 53.82 380.85 104.58 371.66
  C 108.39 370.97 115.05 369.18 119.50 369.70
  Q 124.64 370.30 126.94 369.89
  A 1.94 1.91 8.1 0 0 128.32 368.87
  L 128.58 368.33
  Q 129.02 367.45 128.04 367.51
  L 109.79 368.67
  A 5.19 5.18 77.6 0 1 104.63 365.36
  Q 101.79 358.02 98.86 350.92
  C 95.17 342.00 92.98 336.29 85.49 332.20
  Q 82.43 330.54 79.21 332.72
  A 0.49 0.49 0.0 0 1 78.48 332.49
  Q 78.34 332.12 78.56 331.77
  Q 79.31 330.56 80.46 329.71
  C 85.78 325.76 92.41 321.75 96.08 316.14
  A 0.58 0.58 0.0 0 0 95.70 315.25
  C 88.97 314.01 80.85 314.42 73.28 314.46
  Q 71.32 314.46 70.94 312.54
  L 70.78 311.72
  Q 70.43 310.01 72.15 310.31
  C 74.61 310.75 76.73 311.44 79.19 310.37
  Q 82.21 309.05 84.78 306.88
  Q 86.04 305.81 84.40 305.61
  Q 81.82 305.29 78.50 304.79
  C 75.55 304.34 75.00 300.95 74.10 298.71
  Q 73.23 296.54 69.28 294.64
  Q 56.99 288.71 44.04 289.22
  Q 42.18 289.29 43.50 287.99
  C 53.37 278.24 65.60 271.02 79.50 269.18
  C 82.29 268.80 85.42 264.03 87.25 262.00
  C 98.00 250.17 109.20 257.89 121.20 261.27
  Q 136.82 265.67 153.02 265.65
  C 165.53 265.63 173.58 260.57 183.74 254.38
  C 188.16 251.68 193.18 250.05 198.01 248.28
  C 200.51 247.36 198.74 241.49 197.85 239.65
  Q 196.65 237.14 193.57 232.93
  Q 193.28 232.54 192.80 232.48
  Q 181.33 231.01 179.16 219.51
  C 178.47 215.87 178.67 210.29 181.04 207.22
  C 182.61 205.18 185.99 203.75 187.46 201.71
  C 190.11 198.01 192.11 193.90 197.27 193.83
  Q 200.21 193.78 204.24 192.78
  C 208.06 191.84 212.94 196.15 215.84 198.20
  A 0.59 0.59 0.0 0 0 216.77 197.76
  C 217.55 185.34 204.62 177.27 195.31 172.18
  A 1.14 1.14 0.0 0 1 195.05 170.37
  L 197.33 168.11
  Q 197.73 167.71 197.73 167.15
  C 197.64 153.81 204.17 142.06 216.99 137.20
  Q 217.45 137.02 217.55 136.53
  C 219.17 128.34 220.57 120.13 222.63 112.05
  Q 222.98 110.69 223.78 109.22
  C 227.94 101.58 230.73 93.04 231.35 84.33
  Q 231.51 82.15 231.76 79.98
  C 232.02 77.81 233.25 76.42 234.21 74.53
  C 235.42 72.15 235.19 69.52 235.86 66.87
  A 0.99 0.97 87.9 0 1 236.50 66.17
  Q 238.55 65.50 238.59 63.38
  A 1.50 1.49 -23.2 0 1 238.99 62.39
  Q 241.50 59.67 238.88 57.06
  A 1.31 1.31 0.0 0 1 238.97 55.12
  L 240.57 53.80
  Q 241.40 53.12 242.19 53.84
  L 244.51 55.93
  Q 244.94 56.32 245.39 55.95
  L 247.26 54.44
  A 1.34 1.34 0.0 0 1 248.84 54.36
  C 250.59 55.50 248.95 57.79 248.43 59.10
  Q 248.25 59.55 248.49 59.99
  C 250.21 63.07 252.06 67.27 251.30 70.42
  Q 251.17 70.94 251.60 71.26
  Q 252.63 72.00 253.85 72.32
  Q 254.43 72.47 254.49 73.07
  Q 254.78 76.24 257.34 78.14
  A 1.95 1.90 -84.6 0 1 257.96 78.91
  C 259.20 81.68 258.97 85.95 259.09 88.87
  A 3.79 3.77 -64.9 0 0 259.85 90.99
  Q 270.60 105.17 281.95 118.79
  Q 282.79 119.80 283.47 122.50
  C 284.93 128.29 286.04 133.48 287.95 139.74
  C 288.98 143.12 289.29 147.20 291.02 150.26
  Q 293.06 153.88 302.87 164.30
  C 304.05 165.55 305.50 166.54 306.78 167.65
  A 1.52 1.51 -41.8 0 1 306.64 170.03
  C 301.32 173.72 291.87 179.23 292.97 186.48
  Q 294.12 194.05 293.99 196.00
  Q 293.01 210.00 288.90 221.67
  C 287.39 225.95 286.21 228.74 286.24 233.23
  Q 286.28 238.25 286.88 243.07
  A 0.78 0.77 -19.2 0 0 288.05 243.63
  Q 294.07 240.06 301.02 241.78
  A 0.92 0.89 87.3 0 1 301.65 242.37
  Q 301.74 242.65 301.72 242.96
  A 0.73 0.72 -89.6 0 1 301.03 243.64
  Q 299.30 243.71 298.34 245.08
  A 0.80 0.79 23.1 0 0 298.84 246.31
  C 301.55 246.85 303.41 246.63 306.27 245.64
  C 309.58 244.49 318.25 242.84 321.57 245.35
  Q 322.07 245.73 321.70 246.24
  C 320.90 247.37 319.54 247.42 318.69 248.15
  C 314.52 251.72 316.49 257.68 309.45 258.53
  A 3.18 3.17 10.1 0 0 307.00 260.23
  L 304.96 264.20
  A 2.34 2.33 -75.7 0 1 302.84 265.46
  L 294.13 265.26
  Q 293.76 265.25 293.81 265.61
  Q 295.51 278.08 297.30 290.53
  C 299.37 305.00 306.35 317.15 314.48 328.99
  Q 314.76 329.40 315.26 329.48
  Q 317.58 329.85 318.64 332.32
  Q 328.14 354.40 337.38 376.58
  C 338.83 380.07 341.51 382.07 341.02 386.88
  Q 340.95 387.54 341.17 388.06
  C 342.64 391.48 344.72 394.51 346.36 397.87
  C 347.63 400.47 347.27 402.44 347.87 404.90
  Q 347.98 405.36 348.43 405.50
  Q 349.65 405.88 350.68 406.67
  Q 351.02 406.94 351.02 407.37
  L 350.96 416.78
  A 0.49 0.49 0.0 0 1 350.47 417.27
  L 317.52 417.09
  A 1.04 1.04 0.0 0 1 316.48 416.02
  L 316.67 408.25
  Q 316.68 407.71 317.16 407.46
  Q 318.86 406.59 318.80 405.25
  Q 318.53 399.22 323.12 394.91
  A 2.11 2.10 -52.5 0 0 322.68 391.52
  C 321.86 391.08 321.01 390.40 320.66 389.37
  Q 317.41 379.84 313.22 375.24
  Q 302.53 363.52 292.52 351.21
  Q 290.24 348.41 290.45 345.30
  A 2.93 2.92 -70.0 0 0 289.26 342.74
  L 287.44 341.42
  Q 286.95 341.07 286.92 340.47
  C 286.79 338.30 286.54 336.64 285.03 334.90
  C 282.45 331.93 279.38 329.50 278.20 325.53
  C 275.96 317.93 274.07 310.57 270.41 303.51
  C 266.56 296.08 262.69 287.54 256.47 281.89
  A 2.04 2.03 -48.6 0 0 253.55 282.08
  L 251.79 284.16
  Q 251.38 284.65 250.88 284.24
  L 250.06 283.57
  Q 249.82 283.38 249.55 283.52
  L 249.24 283.67
  Q 248.92 283.83 249.16 284.10
  Q 253.97 289.61 258.63 295.11
  Q 260.79 297.66 261.59 300.34
  Q 263.96 308.24 262.54 315.74
  C 261.84 319.47 257.06 321.95 254.53 324.64
  Q 254.19 325.00 254.15 325.50
  Q 253.87 328.68 251.10 330.35
  Q 243.16 335.13 236.73 340.18
  C 234.70 341.78 233.21 343.54 233.10 346.35
  Q 232.50 360.76 236.01 374.75
  C 237.57 380.95 239.68 387.15 239.49 393.55
  Q 238.83 416.09 231.37 437.15
  Q 231.15 437.76 230.73 437.26
  C 218.90 423.13 199.25 419.22 181.84 418.85
  Q 181.44 418.84 181.35 418.45
  C 180.39 413.86 183.18 410.91 185.51 407.41
  A 1.16 1.15 30.3 0 0 185.07 405.74
  C 180.73 403.52 173.71 402.06 174.52 395.51
  C 174.77 393.49 176.43 390.83 173.53 388.92
  C 169.58 386.32 165.13 386.71 160.53 386.79
  Q 158.73 386.81 158.89 385.02
  Q 158.95 384.39 160.46 383.44
  Q 162.07 382.42 163.74 381.44
  Q 164.17 381.19 164.12 380.68
  C 163.55 375.62 157.38 378.65 154.61 379.19
  A 0.93 0.89 -26.2 0 1 153.76 378.92
  L 152.71 377.80
  Q 152.42 377.49 152.06 377.73
  Q 147.47 380.76 143.17 384.14
  Q 141.38 385.54 139.34 385.85
  C 134.37 386.62 129.86 386.06 125.05 388.50
  Q 117.42 392.38 114.28 392.84
  Q 96.49 395.49 79.71 401.87
  Q 68.85 406.00 61.56 414.40
  A 3.12 3.12 0.0 0 1 58.96 415.47
  C 51.81 414.90 49.52 420.29 44.22 422.21
  Q 37.91 424.50 31.24 424.52
  C 28.99 424.53 27.70 423.65 27.04 421.61
  Q 26.88 421.12 27.12 420.66
  Q 29.44 416.14 31.09 411.37
  Q 31.98 408.79 35.75 408.69
  C 39.94 408.58 43.99 408.44 47.90 406.63
  C 50.16 405.58 51.89 404.52 54.48 404.12
  C 63.72 402.71 72.87 395.31 80.20 389.74
  A 0.29 0.29 0.0 0 0 80.03 389.22
  Q 79.83 389.23 79.51 389.28
  Q 39.44 395.71 0.00 405.66
  Z
  M 246.89 66.06
  L 245.64 67.70
  A 0.51 0.51 0.0 0 0 245.99 68.51
  L 248.08 68.73
  A 0.65 0.64 3.2 0 0 248.80 68.10
  Q 248.83 63.56 244.30 62.47
  A 1.15 1.14 23.2 0 0 243.06 62.96
  L 242.82 63.32
  A 0.75 0.75 0.0 0 0 243.30 64.46
  L 246.56 65.16
  A 0.57 0.56 -65.4 0 1 246.89 66.06
  Z
  M 250.77 80.60
  Q 250.74 81.38 249.97 81.23
  Q 247.80 80.81 247.16 82.71
  A 0.47 0.47 0.0 0 0 247.59 83.33
  C 248.90 83.38 250.83 82.69 251.83 83.16
  Q 253.02 83.71 252.75 85.50
  Q 252.38 87.96 252.22 90.47
  Q 252.19 90.99 252.68 91.17
  Q 255.88 92.34 257.14 94.12
  C 263.83 103.59 270.98 112.43 277.12 122.31
  Q 278.76 124.96 277.10 126.32
  A 1.68 1.68 0.0 0 0 276.61 128.21
  Q 278.33 132.72 279.13 136.80
  C 279.72 139.87 282.08 142.25 283.50 144.43
  C 284.85 146.52 285.25 149.09 285.85 151.50
  Q 286.21 152.93 286.24 151.46
  C 286.30 148.22 286.48 145.75 285.42 142.62
  C 283.40 136.67 281.27 130.95 280.79 124.63
  Q 280.62 122.38 279.53 120.58
  C 273.07 109.97 265.11 101.81 258.03 92.27
  C 256.08 89.66 256.11 85.50 255.97 82.36
  C 255.82 79.07 252.57 77.96 252.14 74.36
  Q 252.07 73.78 251.60 73.42
  Q 249.12 71.53 246.04 72.06
  A 1.12 1.11 5.0 0 0 245.18 72.78
  L 244.86 73.66
  A 0.31 0.31 0.0 0 0 245.29 74.04
  Q 247.86 72.73 250.44 73.99
  Q 250.81 74.18 250.87 74.58
  Q 250.98 75.43 250.24 75.29
  Q 245.80 74.45 243.18 78.20
  A 1.14 1.13 -75.3 0 0 244.22 79.98
  L 250.01 79.43
  A 0.71 0.70 88.2 0 1 250.78 80.16
  L 250.77 80.60
  Z
  M 237.83 124.92
  C 239.73 121.75 245.73 121.01 248.24 123.32
  Q 248.62 123.67 249.13 123.64
  C 253.83 123.38 256.70 127.14 260.43 129.27
  Q 262.93 130.70 264.00 132.37
  Q 265.92 135.37 266.56 138.96
  Q 266.65 139.46 266.98 139.84
  C 269.43 142.63 268.74 145.01 268.73 148.47
  Q 268.73 149.08 269.03 148.54
  L 270.72 145.47
  A 1.14 1.13 48.8 0 0 270.78 144.52
  Q 268.83 139.71 267.02 134.84
  C 264.87 129.06 261.42 124.82 260.16 118.53
  C 258.66 111.07 257.26 103.98 254.86 96.72
  A 2.43 2.42 -6.1 0 0 252.80 95.07
  C 250.20 94.80 248.90 91.97 246.89 90.46
  A 1.16 1.13 -25.0 0 0 246.23 90.23
  L 243.90 90.21
  Q 243.34 90.20 243.24 89.65
  L 243.03 88.50
  Q 242.69 86.65 241.87 88.12
  Q 241.63 88.56 241.48 90.00
  C 241.03 94.43 239.98 98.66 240.00 103.03
  Q 240.03 109.52 239.97 116.00
  Q 239.95 118.13 237.12 123.99
  A 0.62 0.62 0.0 0 0 237.25 124.70
  L 237.50 124.96
  Q 237.69 125.15 237.83 124.92
  Z
  M 244.10 145.21
  Q 243.92 146.38 242.81 146.47
  Q 242.27 146.51 242.24 147.06
  Q 242.20 147.67 242.63 147.89
  Q 244.63 148.91 245.69 149.99
  Q 247.44 151.76 244.99 151.29
  Q 244.60 151.21 243.59 150.39
  Q 243.39 150.23 243.31 150.48
  Q 243.26 150.63 243.21 150.78
  Q 243.17 150.93 243.27 151.06
  Q 244.84 152.99 241.72 155.42
  Q 241.20 155.82 241.63 156.33
  C 243.68 158.74 251.60 155.43 254.28 154.45
  A 0.45 0.45 0.0 0 1 254.87 154.99
  C 254.33 157.03 251.65 160.53 252.90 162.41
  C 253.92 163.95 257.92 164.12 256.74 166.65
  A 0.84 0.83 10.7 0 1 256.03 167.13
  Q 252.48 167.35 250.87 170.51
  Q 250.59 171.06 251.17 171.25
  Q 252.05 171.55 253.02 171.40
  Q 255.93 170.97 253.38 172.77
  C 251.25 174.27 251.15 178.91 251.54 181.48
  Q 251.64 182.14 252.16 181.72
  L 257.21 177.54
  Q 257.54 177.27 257.98 177.27
  L 259.32 177.29
  A 1.07 1.07 0.0 0 0 260.27 176.74
  Q 261.41 174.68 263.77 175.20
  A 0.75 0.74 -72.4 0 0 264.61 174.76
  L 267.94 166.93
  A 0.38 0.37 -8.6 0 0 267.35 166.50
  Q 266.27 167.39 265.84 168.73
  A 0.99 0.99 0.0 0 1 264.25 169.17
  C 262.20 167.39 256.49 163.42 256.71 160.50
  Q 256.99 156.69 257.04 153.10
  A 1.87 1.87 0.0 0 1 257.86 151.57
  Q 259.27 150.60 260.94 150.25
  A 0.58 0.58 0.0 0 0 261.39 149.54
  Q 260.89 147.64 259.40 146.33
  Q 258.90 145.88 258.61 146.49
  Q 258.23 147.30 257.29 147.43
  Q 256.63 147.52 256.66 146.86
  L 256.98 140.11
  A 0.70 0.70 0.0 0 1 257.62 139.45
  Q 262.93 139.03 265.20 143.76
  Q 265.37 144.14 265.32 144.55
  Q 265.06 146.53 265.26 147.45
  Q 266.29 152.19 266.51 147.35
  C 266.66 143.90 267.41 143.00 264.35 140.60
  Q 263.15 139.67 264.30 138.69
  Q 264.67 138.37 264.52 137.46
  C 264.19 135.44 259.81 131.70 258.14 130.49
  Q 257.67 130.15 257.39 130.66
  Q 257.19 131.03 257.19 131.47
  A 0.64 0.64 0.0 0 1 256.63 132.12
  L 256.01 132.21
  Q 255.57 132.27 255.49 131.83
  Q 255.18 130.03 254.37 128.48
  Q 253.40 126.62 252.55 128.54
  L 252.21 129.32
  Q 251.59 130.70 250.52 129.63
  L 247.54 126.64
  Q 247.16 126.26 246.75 126.61
  Q 244.83 128.21 242.82 126.84
  Q 242.22 126.44 242.39 127.14
  Q 242.93 129.43 244.54 131.15
  Q 244.94 131.59 245.28 131.10
  L 246.57 129.18
  A 0.52 0.51 -53.1 0 1 247.33 129.07
  Q 248.66 130.20 249.83 131.54
  Q 250.19 131.95 250.56 132.05
  Q 251.00 132.17 251.49 132.06
  Q 252.02 131.93 252.43 132.30
  Q 255.77 135.30 254.84 139.76
  A 0.59 0.58 23.0 0 1 253.94 140.12
  L 251.84 138.72
  Q 251.34 138.39 251.21 138.96
  L 251.02 139.72
  A 0.73 0.72 -82.2 0 1 250.29 140.28
  L 248.92 140.24
  A 0.65 0.65 0.0 0 0 248.25 140.83
  L 248.19 141.55
  A 0.82 0.81 -69.0 0 1 246.90 142.13
  Q 246.05 141.51 245.03 141.28
  A 0.92 0.92 0.0 0 1 244.42 140.85
  Q 243.43 139.20 241.91 138.03
  A 0.41 0.41 0.0 0 0 241.27 138.48
  L 241.68 139.80
  A 1.01 1.01 0.0 0 1 241.51 140.73
  Q 241.10 141.26 241.03 141.91
  Q 240.98 142.44 241.41 142.75
  L 243.76 144.42
  Q 244.17 144.71 244.10 145.21
  Z
  M 239.77 159.99
  A 2.46 2.20 77.3 0 1 236.56 157.70
  C 236.43 153.28 234.20 151.81 232.58 148.02
  Q 232.26 147.27 232.15 148.07
  C 231.80 150.70 232.05 153.78 233.99 155.79
  C 236.08 157.95 236.49 160.87 237.26 163.67
  Q 237.43 164.27 238.04 164.27
  L 239.53 164.28
  Q 240.33 164.28 240.55 163.51
  Q 241.00 161.95 240.66 160.34
  A 0.54 0.54 0.0 0 0 240.22 159.93
  Q 239.97 159.89 239.77 159.99
  Z
  M 283.01 167.55
  L 278.65 164.13
  Q 277.45 163.19 277.80 164.68
  Q 280.21 175.08 282.43 184.76
  Q 282.55 185.30 282.52 185.72
  Q 282.45 186.49 282.19 186.66
  A 2.73 2.65 -25.6 0 1 278.14 185.30
  L 277.13 182.14
  A 2.25 2.25 0.0 0 0 274.33 180.67
  L 273.73 180.85
  A 1.55 1.55 0.0 0 0 272.70 182.79
  L 280.23 207.14
  A 1.09 1.09 0.0 0 0 281.86 207.73
  Q 282.78 207.14 282.99 208.44
  Q 284.12 215.46 282.24 222.30
  Q 282.18 222.50 282.38 222.56
  L 282.39 222.57
  Q 282.61 222.64 282.66 222.51
  L 286.99 210.42
  Q 287.52 208.92 287.12 207.37
  L 284.09 195.73
  A 0.74 0.74 0.0 0 1 284.52 194.86
  Q 285.14 194.60 285.56 193.63
  Q 285.79 193.10 285.75 192.33
  Q 285.56 187.35 286.44 182.70
  A 2.53 2.52 26.6 0 0 285.66 180.37
  L 282.55 177.53
  Q 282.11 177.12 282.13 176.52
  L 282.29 173.19
  A 1.61 1.60 3.8 0 1 284.03 171.67
  Q 286.91 171.91 288.82 169.75
  A 0.58 0.57 39.8 0 1 289.61 169.68
  Q 290.76 170.62 292.31 170.22
  Q 292.85 170.08 292.73 169.53
  Q 292.46 168.32 291.15 167.88
  C 284.74 165.70 282.92 162.66 280.02 156.82
  Q 279.56 155.90 279.65 156.92
  Q 280.07 161.98 283.41 166.53
  Q 283.62 166.82 283.50 167.37
  Q 283.40 167.85 283.01 167.55
  Z
  M 216.37 244.24
  L 216.95 251.47
  A 1.07 1.06 -15.5 0 0 218.49 252.34
  Q 223.56 249.78 228.50 248.54
  C 230.73 247.97 233.35 250.74 234.92 252.59
  Q 235.18 252.89 235.20 253.29
  L 235.26 254.09
  A 1.40 1.40 0.0 0 1 233.25 255.45
  Q 229.86 253.81 226.03 253.71
  Q 225.35 253.70 224.99 254.27
  L 224.72 254.69
  A 0.40 0.40 0.0 0 0 225.00 255.30
  C 228.03 255.71 235.74 256.92 237.31 259.97
  Q 238.24 261.78 236.36 260.97
  Q 234.94 260.36 233.28 260.26
  Q 231.56 260.14 232.68 261.46
  L 234.76 263.91
  A 0.88 0.88 0.0 0 1 234.06 265.36
  C 230.14 265.24 230.15 268.40 229.83 271.77
  Q 229.14 279.15 228.64 286.54
  C 228.48 288.85 229.10 291.04 229.56 293.29
  Q 230.03 295.61 228.32 295.55
  A 1.17 1.17 0.0 0 0 227.19 297.15
  C 228.54 300.58 230.02 303.55 229.96 307.30
  C 229.81 316.18 228.56 325.28 227.69 334.13
  C 227.43 336.84 226.94 342.26 224.42 342.51
  Q 223.92 342.56 223.50 342.84
  L 218.31 346.45
  A 0.85 0.84 44.7 0 0 218.32 347.84
  Q 218.97 348.27 219.63 347.96
  Q 220.49 347.55 220.49 348.50
  L 220.50 353.54
  A 1.73 1.71 28.1 0 0 220.80 354.51
  L 221.65 355.76
  Q 221.94 356.20 221.95 356.73
  L 222.10 363.63
  A 0.33 0.33 0.0 0 0 222.47 363.95
  L 222.84 363.89
  A 0.76 0.75 86.1 0 0 223.49 363.14
  L 223.51 358.04
  A 0.48 0.48 0.0 0 1 224.28 357.66
  L 224.64 357.94
  A 0.67 0.66 42.8 0 0 225.49 357.91
  L 226.70 356.82
  Q 227.06 356.50 227.14 356.97
  L 227.29 357.81
  A 0.48 0.48 0.0 0 1 227.20 358.17
  L 225.53 360.31
  A 1.81 1.80 -33.4 0 0 225.20 361.89
  L 225.44 362.80
  Q 225.71 363.82 226.53 363.16
  C 228.63 361.47 230.01 359.85 229.90 356.88
  C 229.67 350.25 229.51 343.79 230.34 337.06
  Q 232.39 320.56 234.53 304.36
  A 9.08 9.07 40.1 0 0 234.20 300.53
  C 232.43 294.89 230.17 286.88 236.89 283.40
  A 1.26 1.23 87.1 0 0 237.49 282.72
  Q 238.03 281.31 237.82 279.99
  Q 236.95 274.55 237.22 269.42
  A 1.21 1.14 61.8 0 1 237.36 268.90
  Q 238.97 265.83 240.32 275.17
  Q 240.44 275.97 240.79 275.24
  L 243.86 269.00
  A 1.83 1.82 41.6 0 0 243.75 267.18
  L 242.14 264.76
  Q 241.82 264.28 241.95 263.72
  Q 242.66 260.45 240.47 258.08
  A 1.16 1.14 27.8 0 1 240.17 257.15
  C 240.70 252.84 239.83 249.85 236.69 246.63
  C 234.90 244.80 233.21 241.67 230.76 240.96
  C 227.32 239.97 223.00 240.50 219.49 240.98
  C 215.01 241.60 215.98 237.52 215.28 234.83
  Q 215.12 234.21 214.60 234.57
  L 211.34 236.84
  Q 208.52 238.80 210.64 236.11
  C 212.39 233.88 215.03 231.47 215.23 228.25
  Q 215.46 224.51 214.66 219.33
  Q 214.59 218.87 214.15 218.71
  C 209.61 216.97 206.21 213.39 203.10 209.80
  Q 202.54 209.17 201.75 209.45
  C 198.93 210.45 194.85 212.96 196.15 216.70
  Q 196.41 217.45 197.19 217.59
  Q 200.33 218.18 200.34 220.24
  Q 200.36 223.64 199.96 227.07
  A 1.27 1.23 33.2 0 0 200.15 227.91
  L 202.58 231.76
  Q 202.88 232.23 203.43 232.30
  Q 205.14 232.53 206.75 231.95
  Q 208.01 231.49 206.98 232.35
  L 205.17 233.87
  A 0.68 0.68 0.0 0 0 204.93 234.23
  L 204.23 236.77
  Q 204.12 237.16 203.73 237.26
  L 202.63 237.55
  Q 202.04 237.70 202.08 238.31
  C 202.29 241.74 205.87 239.95 207.51 239.33
  Q 209.58 238.54 209.38 240.75
  Q 208.96 245.23 205.09 247.33
  A 0.92 0.90 -15.5 0 0 204.62 248.14
  Q 204.65 251.67 201.40 253.11
  Q 200.96 253.31 200.54 253.05
  C 198.27 251.61 193.13 254.03 191.40 255.65
  Q 185.92 260.80 180.83 266.34
  C 178.28 269.11 179.78 272.62 182.00 274.26
  Q 184.01 275.75 183.32 273.35
  Q 182.52 270.53 183.75 267.87
  Q 184.02 267.30 184.64 267.20
  Q 185.37 267.10 186.12 267.26
  Q 186.63 267.37 187.06 267.07
  L 190.52 264.71
  Q 191.22 264.24 191.20 265.08
  Q 191.18 266.36 191.67 267.51
  Q 191.89 268.03 192.44 267.90
  C 203.08 265.30 210.23 252.52 215.88 244.11
  Q 216.31 243.47 216.37 244.24
  Z
  M 195.87 226.75
  Q 196.98 225.72 196.17 224.54
  A 0.74 0.74 0.0 0 0 194.96 224.52
  Q 194.13 225.65 194.96 226.68
  Q 195.38 227.20 195.87 226.75
  Z
  M 287.03 247.75
  Q 287.26 248.77 286.35 249.61
  Q 284.15 251.65 283.07 252.74
  Q 279.72 256.14 284.08 254.20
  Q 284.61 253.96 287.26 252.90
  C 291.41 251.25 293.37 257.51 299.35 253.37
  Q 303.99 250.16 309.13 247.83
  C 310.30 247.31 311.47 247.39 312.74 247.09
  Q 313.60 246.89 312.75 246.67
  C 308.68 245.61 305.76 248.79 302.01 249.05
  C 299.72 249.21 296.24 247.66 293.84 247.15
  Q 293.29 247.03 293.31 246.47
  Q 293.37 244.78 294.85 244.21
  Q 295.14 244.09 295.03 243.80
  L 294.93 243.53
  Q 294.90 243.45 294.82 243.47
  Q 293.20 243.95 291.68 244.67
  C 284.79 247.95 280.22 245.67 274.33 241.96
  A 2.17 2.15 47.7 0 0 272.20 241.85
  Q 269.58 243.17 268.61 245.90
  A 1.21 1.21 0.0 0 1 267.31 246.69
  Q 265.73 246.47 264.01 246.25
  Q 263.45 246.18 263.25 246.64
  Q 263.05 247.10 263.49 247.31
  Q 267.56 249.27 271.99 250.14
  Q 275.27 250.79 272.17 252.04
  Q 269.36 253.18 265.68 253.77
  C 263.20 254.17 260.61 253.52 257.92 253.52
  Q 256.68 253.51 257.40 254.52
  Q 257.51 254.67 258.30 254.91
  Q 262.98 256.34 267.78 257.31
  C 273.67 258.51 281.85 249.70 286.17 247.36
  A 0.59 0.59 0.0 0 1 287.03 247.75
  Z
  M 290.12 315.25
  Q 289.14 314.89 286.50 313.49
  Q 286.03 313.24 285.88 313.70
  Q 285.74 314.14 286.11 314.43
  C 288.03 315.96 290.05 317.03 291.63 318.90
  Q 292.94 320.46 294.25 322.04
  A 1.21 1.18 -15.5 0 0 295.03 322.47
  C 297.72 322.83 298.52 324.97 299.72 327.51
  A 0.83 0.81 -13.7 0 0 300.51 327.98
  Q 302.70 327.83 304.77 328.62
  Q 305.32 328.83 305.58 329.36
  L 307.24 332.75
  Q 307.48 333.23 308.01 333.26
  L 313.30 333.52
  A 1.81 1.81 0.0 0 1 315.02 335.30
  L 315.04 335.84
  A 0.98 0.97 -85.6 0 1 313.90 336.82
  L 310.02 336.16
  A 0.39 0.38 11.1 0 0 309.58 336.45
  Q 309.54 336.61 309.50 336.77
  Q 309.43 337.06 309.66 337.23
  C 313.69 340.17 315.85 344.68 317.51 349.25
  C 318.58 352.17 316.86 354.00 317.81 356.48
  Q 319.42 360.69 321.19 364.53
  Q 321.68 365.60 321.77 364.43
  Q 321.96 361.99 320.74 359.35
  Q 320.62 359.09 320.89 358.98
  L 321.16 358.86
  Q 321.68 358.65 321.91 359.16
  Q 327.61 371.50 329.35 375.74
  Q 329.68 376.55 328.91 377.48
  A 0.99 0.96 58.7 0 0 328.72 378.30
  Q 329.24 380.63 328.03 382.73
  A 0.36 0.35 89.2 0 0 328.52 383.21
  L 330.65 381.90
  Q 331.13 381.61 331.68 381.55
  Q 334.56 381.27 335.91 383.92
  Q 336.19 384.46 335.61 384.62
  Q 333.48 385.23 331.33 384.96
  Q 330.60 384.87 330.92 385.53
  Q 331.76 387.26 330.56 388.59
  Q 330.13 389.05 330.45 389.60
  Q 331.56 391.46 331.21 393.66
  Q 331.12 394.21 331.60 394.48
  C 333.95 395.82 335.81 395.60 337.96 397.83
  A 0.99 0.99 0.0 0 1 337.34 399.51
  C 336.22 399.61 335.38 400.28 334.18 400.35
  Q 331.20 400.50 328.60 400.68
  Q 327.84 400.74 328.08 401.46
  L 328.16 401.71
  Q 328.46 402.65 329.44 402.51
  C 332.85 402.04 337.88 401.64 338.98 405.88
  A 0.79 0.78 -19.0 0 1 338.53 406.79
  L 336.92 407.50
  Q 336.36 407.75 336.49 408.35
  Q 336.52 408.52 336.65 408.65
  Q 336.88 408.88 337.42 408.86
  Q 342.20 408.64 346.98 408.86
  Q 347.47 408.88 347.56 408.40
  Q 347.59 408.20 347.49 408.00
  Q 347.37 407.75 346.91 407.50
  C 342.72 405.25 345.59 401.16 342.72 397.80
  C 338.95 393.38 338.78 389.05 337.84 383.61
  A 1.45 1.42 -74.0 0 0 337.38 382.76
  Q 334.83 380.46 334.33 379.19
  C 328.29 364.08 322.45 348.36 315.17 333.82
  C 313.31 330.09 308.45 330.09 306.74 327.50
  Q 299.95 317.27 293.50 306.82
  Q 291.44 303.48 291.03 301.25
  Q 290.13 296.40 287.67 279.36
  C 287.18 275.95 284.49 275.13 281.90 273.57
  A 1.29 1.24 58.4 0 0 281.17 273.38
  Q 280.54 273.40 280.27 272.94
  Q 279.98 272.46 279.48 272.71
  C 277.76 273.55 278.82 275.71 279.36 276.93
  Q 281.97 282.82 284.52 288.75
  Q 284.75 289.29 284.22 289.54
  Q 283.75 289.76 283.24 289.58
  A 0.62 0.62 0.0 0 0 282.41 290.07
  C 281.58 295.51 283.79 298.24 285.62 302.82
  Q 285.88 303.47 285.19 303.51
  L 283.98 303.58
  Q 283.56 303.61 283.59 304.02
  Q 283.66 305.00 284.20 305.52
  Q 288.42 309.59 291.42 313.49
  Q 293.83 316.64 290.12 315.25
  Z
  M 162.74 337.37
  C 165.78 338.38 165.73 343.91 166.17 346.16
  Q 166.79 349.31 167.38 346.15
  Q 168.40 340.71 167.74 334.75
  Q 167.64 333.81 167.80 332.85
  Q 167.88 332.36 168.25 332.03
  L 172.31 328.35
  Q 172.67 328.02 172.78 327.56
  C 173.06 326.44 173.88 324.52 173.04 323.54
  Q 172.68 323.12 172.85 322.60
  Q 173.35 321.09 172.27 320.02
  A 0.94 0.92 25.6 0 1 171.99 319.25
  Q 172.21 317.45 171.45 315.79
  A 0.69 0.69 0.0 0 0 170.17 315.86
  C 169.19 318.81 168.98 321.58 166.15 323.53
  Q 165.73 323.82 165.79 324.33
  Q 166.05 326.28 165.21 327.21
  Q 158.51 334.63 151.81 342.07
  Q 148.12 346.16 141.39 359.00
  C 140.82 360.07 140.82 361.02 140.64 362.19
  C 140.37 363.94 139.35 365.10 138.60 366.68
  Q 138.24 367.43 138.93 366.96
  Q 141.06 365.46 142.39 363.16
  C 144.93 358.78 156.49 335.30 162.74 337.37
  Z
  M 319.09 369.17
  C 313.25 359.10 307.80 349.50 304.16 338.36
  A 0.24 0.24 0.0 0 0 303.85 338.20
  L 303.57 338.29
  A 0.43 0.43 0.0 0 0 303.30 338.84
  Q 308.98 355.11 318.75 369.27
  Q 318.90 369.49 319.03 369.40
  L 319.04 369.40
  Q 319.17 369.31 319.09 369.17
  Z
  M 210.28 378.39
  L 210.30 379.44
  Q 210.30 379.92 210.01 380.31
  C 208.84 381.83 207.61 386.60 210.07 387.65
  Q 210.51 387.84 210.52 388.32
  C 210.57 391.34 209.00 394.23 207.76 396.89
  Q 207.24 398.03 208.49 398.14
  L 211.89 398.45
  Q 212.43 398.50 212.90 398.22
  Q 213.65 397.78 214.51 398.08
  Q 215.93 398.59 215.38 397.19
  C 214.15 394.09 212.88 392.19 213.01 388.75
  Q 213.03 388.22 213.33 387.79
  Q 216.17 383.81 212.83 380.05
  Q 212.46 379.63 212.73 379.14
  L 214.34 376.24
  A 0.96 0.93 61.1 0 0 214.47 375.76
  L 214.56 372.58
  Q 214.57 371.96 215.18 371.97
  L 220.38 371.99
  A 0.87 0.87 0.0 0 0 221.25 371.12
  L 221.25 365.27
  Q 221.25 364.76 220.79 364.58
  C 217.82 363.40 220.16 361.35 218.76 359.44
  Q 218.36 358.89 218.29 359.57
  Q 217.96 362.65 218.91 365.56
  Q 219.40 367.08 217.81 366.87
  L 217.34 366.80
  A 1.74 1.72 -1.1 0 1 215.86 365.39
  C 215.11 361.25 216.43 356.61 215.18 352.16
  Q 215.06 351.72 214.62 351.62
  L 213.78 351.44
  Q 213.16 351.31 213.19 350.67
  C 213.28 348.85 214.51 346.52 214.32 345.03
  Q 214.13 343.60 212.55 343.57
  Q 212.07 343.56 211.73 343.58
  A 1.49 1.49 0.0 0 0 210.35 345.35
  L 211.35 350.46
  Q 211.47 351.08 210.86 351.24
  C 207.58 352.15 208.98 357.33 209.55 359.51
  C 210.24 362.16 210.79 366.05 210.04 367.76
  Q 208.09 372.19 209.03 376.99
  Q 209.11 377.39 209.48 377.57
  L 209.87 377.75
  Q 210.28 377.94 210.28 378.39
  Z"
/>
<path fill="#ffffff" d="
  M 247.27 78.00
  Q 246.97 78.08 246.78 78.03
  Q 245.84 77.77 246.71 77.33
  Q 248.02 76.66 248.86 76.47
  Q 251.65 75.84 249.59 77.82
  Q 249.26 78.14 248.09 77.96
  Q 247.67 77.89 247.27 78.00
  Z"
/>
<path fill="#ffffff" d="
  M 203.70 219.55
  L 202.79 219.36
  Q 202.17 219.23 202.03 218.62
  Q 201.92 218.18 202.11 217.76
  Q 202.28 217.36 202.80 217.15
  Q 206.32 215.70 209.73 217.43
  Q 210.08 217.61 210.12 218.01
  L 210.19 218.71
  A 0.56 0.56 0.0 0 1 209.60 219.32
  Q 208.30 219.24 207.96 220.54
  A 1.26 1.26 0.0 0 1 207.28 221.36
  Q 206.48 221.74 205.57 221.59
  Q 204.97 221.50 204.75 220.93
  L 204.46 220.19
  A 1.07 1.06 -4.8 0 0 203.70 219.55
  Z"
/>
<path fill="#ffffff" d="
  M 202.79 229.00
  A 0.50 0.50 0.0 0 1 202.83 228.54
  Q 203.00 228.27 203.30 228.26
  Q 203.63 228.26 203.72 228.58
  Q 203.86 229.10 203.64 229.63
  Q 203.34 230.34 203.04 229.62
  L 202.79 229.00
  Z"
/>
<path fill="#ffffff" d="
  M 69.83 305.58
  C 64.49 307.43 64.17 314.28 67.99 317.57
  C 71.30 320.43 78.49 320.26 82.90 319.90
  Q 85.70 319.67 83.39 321.28
  Q 79.60 323.91 75.75 327.24
  C 71.91 330.56 71.18 336.56 77.25 337.96
  Q 78.66 338.29 81.97 337.25
  A 1.30 1.29 -41.8 0 1 82.89 337.30
  C 88.03 339.53 90.16 343.75 92.29 349.00
  Q 96.26 358.82 100.33 368.79
  A 0.49 0.48 76.0 0 1 99.94 369.45
  Q 98.86 369.58 98.15 370.39
  A 1.06 1.06 0.0 0 1 96.64 370.49
  Q 61.10 338.97 42.53 295.16
  A 0.47 0.47 0.0 0 1 42.94 294.51
  Q 56.00 294.02 67.58 300.00
  C 69.58 301.03 69.97 302.32 70.49 304.35
  A 1.03 1.03 0.0 0 1 69.83 305.58
  Z"
/>
<path fill="#ffffff" d="
  M 240.39 366.36
  C 250.68 366.04 261.17 366.53 271.50 367.05
  Q 273.77 367.17 277.50 365.98
  Q 285.11 363.58 292.47 360.50
  A 0.98 0.98 0.0 0 1 293.59 360.77
  Q 300.10 368.57 307.08 376.23
  C 309.65 379.05 311.37 381.66 313.09 384.83
  A 0.63 0.62 -11.5 0 1 312.48 385.75
  Q 278.18 382.66 243.74 382.19
  A 0.92 0.91 -6.0 0 1 242.86 381.48
  L 239.64 367.32
  A 0.79 0.79 0.0 0 1 240.39 366.36
  Z"
/>
</svg>
